<?xml version="1.0" encoding="UTF-8" standalone="no"?>
<!-- Created with Inkscape (http://www.inkscape.org/) -->

<svg
   xmlns:dc="http://purl.org/dc/elements/1.1/"
   xmlns:cc="http://creativecommons.org/ns#"
   xmlns:rdf="http://www.w3.org/1999/02/22-rdf-syntax-ns#"
   xmlns:svg="http://www.w3.org/2000/svg"
   xmlns="http://www.w3.org/2000/svg"
   xmlns:sodipodi="http://sodipodi.sourceforge.net/DTD/sodipodi-0.dtd"
   xmlns:inkscape="http://www.inkscape.org/namespaces/inkscape"
   inkscape:export-ydpi="41.25"
   inkscape:export-xdpi="41.25"
   inkscape:export-filename="/home/mike/Desktop/test.png"
   width="16"
   height="16"
   id="svg11300"
   sodipodi:version="0.32"
   inkscape:version="0.47 r22583"
   sodipodi:docname="deja-dup-symbolic.svg"
   inkscape:output_extension="org.inkscape.output.svg.inkscape"
   version="1.1">
  <defs
     id="defs10">
    <inkscape:perspective
       sodipodi:type="inkscape:persp3d"
       inkscape:vp_x="0 : 24 : 1"
       inkscape:vp_y="0 : 1000 : 0"
       inkscape:vp_z="48 : 24 : 1"
       inkscape:persp3d-origin="24 : 16 : 1"
       id="perspective12" />
  </defs>
  <sodipodi:namedview
     pagecolor="#ffffff"
     bordercolor="#666666"
     borderopacity="1"
     objecttolerance="10"
     gridtolerance="10"
     guidetolerance="10"
     inkscape:pageopacity="0"
     inkscape:pageshadow="2"
     inkscape:window-width="1258"
     inkscape:window-height="671"
     id="namedview8"
     showgrid="false"
     inkscape:zoom="24.166667"
     inkscape:cx="2.6505584"
     inkscape:cy="8.9118774"
     inkscape:window-x="0"
     inkscape:window-y="24"
     inkscape:window-maximized="0"
     inkscape:current-layer="svg11300" />
  <metadata
     id="metadata4">
    <rdf:RDF>
      <cc:Work
         rdf:about="">
        <dc:format>image/svg+xml</dc:format>
        <dc:type
           rdf:resource="http://purl.org/dc/dcmitype/StillImage" />
        <dc:creator>
          <cc:Agent>
            <dc:title>Jakub Steiner</dc:title>
          </cc:Agent>
        </dc:creator>
        <dc:source>http://jimmac.musichall.cz</dc:source>
        <cc:license
           rdf:resource="http://creativecommons.org/licenses/publicdomain/" />
        <dc:title />
        <dc:subject>
          <rdf:Bag>
            <rdf:li>reload</rdf:li>
            <rdf:li>refresh</rdf:li>
            <rdf:li>view</rdf:li>
          </rdf:Bag>
        </dc:subject>
        <dc:contributor>
          <cc:Agent>
            <dc:title>Michael Terry</dc:title>
          </cc:Agent>
        </dc:contributor>
      </cc:Work>
      <cc:License
         rdf:about="http://creativecommons.org/licenses/publicdomain/">
        <cc:permits
           rdf:resource="http://creativecommons.org/ns#Reproduction" />
        <cc:permits
           rdf:resource="http://creativecommons.org/ns#Distribution" />
        <cc:permits
           rdf:resource="http://creativecommons.org/ns#DerivativeWorks" />
      </cc:License>
    </rdf:RDF>
  </metadata>
  <path
     style="font-size:medium;font-style:normal;font-variant:normal;font-weight:normal;font-stretch:normal;text-indent:0;text-align:start;text-decoration:none;line-height:normal;letter-spacing:normal;word-spacing:normal;text-transform:none;direction:ltr;block-progression:tb;writing-mode:lr-tb;text-anchor:start;color:#000000;fill:#878787;fill-opacity:1;stroke:none;stroke-width:0.95338142000000003;marker:none;visibility:visible;display:inline;overflow:visible;enable-background:accumulate;font-family:Andale Mono;-inkscape-font-specification:Andale Mono"
     d="M 2.0138201,7.9444443 A 0.8533914,0.84753491 0 0 0 1.4544256,8.4444444 L 0.16781834,11.222222 C 0.16781834,11.222222 0,11.663223 0,12.166667 l 0,2.444444 c 0,0.355127 0.15593053,0.72877 0.44751557,1 C 0.73910025,15.882341 1.0735763,16 1.3984862,16 l 13.2017098,0 c 0.375492,0 0.750412,-0.14816 1.00691,-0.444444 0.256498,-0.29629 0.391576,-0.711968 0.391576,-1.055556 l 0,-2.277778 0,-0.05556 c 0.0032,-0.03931 -5.48e-4,-0.09211 0,-0.222223 6.84e-4,-0.162648 0.009,-0.341004 -0.111879,-0.666666 a 0.8533914,0.84753491 0 0 0 0,-0.111111 L 14.544256,8.4444444 a 0.86344489,0.85751941 0 1 0 -1.566304,0.7222222 l 1.286607,2.7222224 c -3.54e-4,0.08435 0,0.166667 0,0.166667 a 0.8533914,0.84753491 0 0 0 0,0.111111 l 0,2.111111 -12.5304361,0 0,-2.111111 c 0,-0.248884 0,-0.277778 0,-0.277778 L 3.0207301,9.1666666 a 0.8533914,0.84753491 0 0 0 -1.00691,-1.2222223 z"
     id="path4196" />
  <rect
     style="fill:#878787;fill-opacity:1;stroke:none"
     id="rect24855"
     width="13.780891"
     height="1.6949003"
     x="1.1728932"
     y="11.491102" />
  <path
     inkscape:r_cy="true"
     inkscape:r_cx="true"
     style="fill:#878787;fill-opacity:1;fill-rule:nonzero;stroke:none;marker:none;visibility:visible;display:block;overflow:visible"
     d="M 7.0842852,1.5958036 7.569456,-2e-7 c 4.805964,1.405827 4.219458,1.5918715 5.496361,4.9390091 L 15.482863,4.4504742 12.102636,8.4113578 9.0157839,5.8328614 11.18537,5.2114262 C 11.108834,2.494139 9.3542212,1.8157778 7.0842852,1.5958036 z"
     id="path1880"
     sodipodi:nodetypes="cccccccc" />
  <path
     sodipodi:nodetypes="cccccccc"
     id="use24798"
     d="M 8.8627587,8.493366 8.3775879,10.08917 C 3.5716236,8.6833427 4.1581303,8.4972982 2.881227,5.1501606 L 0.46418105,5.6386953 3.8444076,1.6778117 6.93126,4.2563081 4.761674,4.8777433 c 0.076536,2.7172872 1.8311487,3.3956484 4.1010847,3.6156227 z"
     style="fill:#878787;fill-opacity:1;fill-rule:nonzero;stroke:none;marker:none;visibility:visible;display:block;overflow:visible"
     inkscape:r_cx="true"
     inkscape:r_cy="true" />
</svg>
