<?xml version="1.0" encoding="UTF-8" standalone="no"?>
<!-- Created with Inkscape (http://www.inkscape.org/) -->

<svg
   xmlns:dc="http://purl.org/dc/elements/1.1/"
   xmlns:cc="http://creativecommons.org/ns#"
   xmlns:rdf="http://www.w3.org/1999/02/22-rdf-syntax-ns#"
   xmlns:svg="http://www.w3.org/2000/svg"
   xmlns="http://www.w3.org/2000/svg"
   xmlns:sodipodi="http://sodipodi.sourceforge.net/DTD/sodipodi-0.dtd"
   xmlns:inkscape="http://www.inkscape.org/namespaces/inkscape"
   inkscape:export-ydpi="41.25"
   inkscape:export-xdpi="41.25"
   inkscape:export-filename="/home/mike/Desktop/test.png"
   width="16"
   height="16"
   id="svg11300"
   sodipodi:version="0.32"
   inkscape:version="0.47 r22583"
   sodipodi:docname="deja-dup-symbolic.svg"
   inkscape:output_extension="org.inkscape.output.svg.inkscape"
   version="1.1">
  <defs
     id="defs10">
    <inkscape:perspective
       sodipodi:type="inkscape:persp3d"
       inkscape:vp_x="0 : 24 : 1"
       inkscape:vp_y="0 : 1000 : 0"
       inkscape:vp_z="48 : 24 : 1"
       inkscape:persp3d-origin="24 : 16 : 1"
       id="perspective12" />
  </defs>
  <sodipodi:namedview
     pagecolor="#ffffff"
     bordercolor="#666666"
     borderopacity="1"
     objecttolerance="10"
     gridtolerance="10"
     guidetolerance="10"
     inkscape:pageopacity="0"
     inkscape:pageshadow="2"
     inkscape:window-width="1258"
     inkscape:window-height="671"
     id="namedview8"
     showgrid="false"
     inkscape:zoom="24.166667"
     inkscape:cx="-2.2170647"
     inkscape:cy="4.5"
     inkscape:window-x="0"
     inkscape:window-y="24"
     inkscape:window-maximized="0"
     inkscape:current-layer="svg11300" />
  <metadata
     id="metadata4">
    <rdf:RDF>
      <cc:Work
         rdf:about="">
        <dc:format>image/svg+xml</dc:format>
        <dc:type
           rdf:resource="http://purl.org/dc/dcmitype/StillImage" />
        <dc:creator>
          <cc:Agent>
            <dc:title>Jakub Steiner</dc:title>
          </cc:Agent>
        </dc:creator>
        <dc:source>http://jimmac.musichall.cz</dc:source>
        <cc:license
           rdf:resource="http://creativecommons.org/licenses/publicdomain/" />
        <dc:title />
        <dc:subject>
          <rdf:Bag>
            <rdf:li>reload</rdf:li>
            <rdf:li>refresh</rdf:li>
            <rdf:li>view</rdf:li>
          </rdf:Bag>
        </dc:subject>
        <dc:contributor>
          <cc:Agent>
            <dc:title>Michael Terry</dc:title>
          </cc:Agent>
        </dc:contributor>
      </cc:Work>
      <cc:License
         rdf:about="http://creativecommons.org/licenses/publicdomain/">
        <cc:permits
           rdf:resource="http://creativecommons.org/ns#Reproduction" />
        <cc:permits
           rdf:resource="http://creativecommons.org/ns#Distribution" />
        <cc:permits
           rdf:resource="http://creativecommons.org/ns#DerivativeWorks" />
      </cc:License>
    </rdf:RDF>
  </metadata>
  <path
     style="font-size:medium;font-style:normal;font-variant:normal;font-weight:normal;font-stretch:normal;text-indent:0;text-align:start;text-decoration:none;line-height:normal;letter-spacing:normal;word-spacing:normal;text-transform:none;direction:ltr;block-progression:tb;writing-mode:lr-tb;text-anchor:start;color:#000000;fill:#b3b3b3;fill-opacity:1;stroke:none;stroke-width:0.95338142;marker:none;visibility:visible;display:inline;overflow:visible;enable-background:accumulate;font-family:Andale Mono;-inkscape-font-specification:Andale Mono"
     d="M 4.65625,7.96875 A 0.47673838,0.47673838 0 0 0 4.34375,8.25 L 3.625,9.8125 c 0,0 -0.09375,0.248063 -0.09375,0.53125 l 0,1.375 c 0,0.199759 0.087109,0.409933 0.25,0.5625 C 3.9441408,12.433817 4.1309924,12.5 4.3125,12.5 l 7.375,0 c 0.209765,0 0.41921,-0.08334 0.5625,-0.25 0.14329,-0.166663 0.21875,-0.400482 0.21875,-0.59375 l 0,-1.28125 0,-0.03125 c 0.0018,-0.02211 -3.06e-4,-0.05181 0,-0.125 3.82e-4,-0.09149 0.005,-0.191815 -0.0625,-0.375 a 0.47673838,0.47673838 0 0 0 0,-0.0625 L 11.65625,8.25 a 0.48235466,0.48235466 0 1 0 -0.875,0.40625 L 11.5,10.1875 c -1.98e-4,0.04745 0,0.09375 0,0.09375 a 0.47673838,0.47673838 0 0 0 0,0.0625 l 0,1.1875 -7,0 0,-1.1875 c 0,-0.139997 0,-0.15625 0,-0.15625 L 5.21875,8.65625 a 0.47673838,0.47673838 0 0 0 -0.5625,-0.6875 z"
     id="path4196" />
  <rect
     style="fill:#b3b3b3;fill-opacity:1;stroke:none"
     id="rect24855"
     width="7.698554"
     height="0.95338142"
     x="4.1864748"
     y="9.9637451" />
  <path
     inkscape:r_cy="true"
     inkscape:r_cx="true"
     style="fill:#878787;fill-opacity:1;fill-rule:nonzero;stroke:none;marker:none;visibility:visible;display:block;overflow:visible"
     d="M 7.4888135,4.3976396 7.7598492,3.5 C 10.444652,4.2907777 10.117006,4.3954277 10.830335,6.2781926 L 12.180593,6.0033918 10.292264,8.2313888 8.5678255,6.7809846 9.7798425,6.4314273 C 9.7370865,4.9029533 8.75689,4.5213751 7.4888135,4.3976396 z"
     id="path1880"
     sodipodi:nodetypes="cccccccc" />
  <path
     sodipodi:nodetypes="cccccccc"
     id="use24798"
     d="M 8.4823395,8.2775184 8.2113038,9.175158 C 5.526501,8.3843803 5.854147,8.2797303 5.140818,6.3969654 L 3.79056,6.6717662 5.678889,4.4437692 7.4033275,5.8941734 6.1913105,6.2437307 c 0.042756,1.528474 1.0229525,1.9100522 2.291029,2.0337877 z"
     style="fill:#878787;fill-opacity:1;fill-rule:nonzero;stroke:none;marker:none;visibility:visible;display:block;overflow:visible"
     inkscape:r_cx="true"
     inkscape:r_cy="true" />
</svg>
